<?xml version="1.0" encoding="UTF-8"?>
<svg xmlns="http://www.w3.org/2000/svg" width="20" height="20" viewBox="0 0 20 20">
  <title>hiero</title>
  <path d="M9.811 1.503c-.865 0-1.928.148-2.694.801-.763.653-1.145 1.808-.618 3.53.438 1.417 1.424 2.856 2.297 3.968-1.592-.064-3.18-.148-4.77-.183.349.638.384 1.407 0 2.039 1.688-.035 3.374-.14 5.06-.221-.123 2.355-.213 4.711-.364 7.063a3.453 3.453 0 0 1 2.364-.037c-.151-2.338-.224-4.683-.326-7.024 1.503.084 3.01.16 4.514.218-.298-.727-.284-1.445.037-2.077-1.428.11-2.863.151-4.294.218.786-1.134 1.764-2.499 2.148-4.112.217-.92.237-1.678.108-2.26-.128-.582-.42-1.016-.8-1.31-.758-.584-1.818-.617-2.656-.617zm0 1.747c.757-.005 1.53.48 1.747 1.456.203.915-.205 2.355-1.638 4.223C8.402 7.077 7.972 5.62 8.136 4.705c.175-.976.917-1.451 1.675-1.456z" />
</svg>
