<?xml version="1.0" encoding="utf-8"?>
<svg xmlns="http://www.w3.org/2000/svg" width="20" height="20" viewBox="2 2 20 20">
    <g id="hiero">
       <path id="ankh" d="M12.124 4.704c-.743 0-1.655.127-2.313.688-.655.56-.983 1.552-.53 3.03.376 1.217 1.222 2.452 1.972 3.407-1.367-.055-2.73-.127-4.096-.157.3.547.33 1.208 0 1.75 1.45-.03 2.897-.12 4.345-.19-.106 2.022-.183 4.045-.313 6.064.69-.25 1.342-.26 2.03-.032-.13-2.007-.193-4.02-.28-6.03 1.29.072 2.584.138 3.875.187-.256-.624-.244-1.24.032-1.783-1.226.094-2.458.13-3.687.187.675-.973 1.515-2.145 1.844-3.53.187-.79.204-1.44.093-1.94-.11-.5-.36-.872-.687-1.124-.65-.502-1.56-.53-2.28-.53zm0 1.5c.65-.004 1.314.412 1.5 1.25.174.785-.176 2.022-1.406 3.625-1.304-1.59-1.673-2.84-1.532-3.626.15-.838.787-1.246 1.438-1.25z"/>
    </g>
</svg>
